# xmcd
#
# Track frame offsets:
#	150
#	16369
#	27834
#	37847
#	54849
#	72992
#	88201
#	110601
#	125191
#	137058
#	152536
#	164956
#
# Disc length: 2340 seconds
#
# Revision: 0
# Processed by: cddbd v1.5.1PL2 Copyright (c) Steve Scherf et al.
# Submitted via: dBpowerAMP V4.0
#
DISCID=a309220c
DTITLE=Various Artist - The Best of Great Blues Masters
DYEAR=2004
DGENRE=Blues
TTITLE0=St. Clair - B.B. King - It's My Own Fault Baby
TTITLE1=St. Clair - John Lee Hooker - Boom Boom
TTITLE2=St. Clair - Buddy Guy - First Time I Met The Blues
TTITLE3=St. Clair - Gatemouth Moore - Goin' Down Slow
TTITLE4=St. Clair - Charles Brown - Driftin' Blues
TTITLE5=St. Clair - Canned Heat - On The Road Again
TTITLE6=St. Clair - B.B. King - The Thrill Is Gone
TTITLE7=St. Clair - Ray Charles - Blues Is My Middle Name
TTITLE8=St. Clair - Lightnin' Hopkins - Have You Ever Loved A Woman
TTITLE9=St. Clair - B.B. King - How Blue Can You Get
TTITLE10=St. Clair - John Lee Hooker - Crawlin' Black Spider
TTITLE11=St. Clair - Ray Charles - Sittin' On Top Of The World
EXTD=
EXTT0=
EXTT1=
EXTT2=
EXTT3=
EXTT4=
EXTT5=
EXTT6=
EXTT7=
EXTT8=
EXTT9=
EXTT10=
EXTT11=
PLAYORDER=
